<svg width="30" height="30" viewBox="0 0 30 30" fill="none" xmlns="http://www.w3.org/2000/svg">
<path d="M30.0004 0.000366211H0.000366211V30.0004H30.0004V0.000366211Z" stroke="white" stroke-width="0.00066"/>
<path d="M15.0004 26.8754C16.0359 26.8754 16.8754 26.0359 16.8754 25.0004C16.8754 23.9648 16.0359 23.1254 15.0004 23.1254C13.9648 23.1254 13.1254 23.9648 13.1254 25.0004C13.1254 26.0359 13.9648 26.8754 15.0004 26.8754Z" fill="white" stroke="white" stroke-width="0.00066"/>
<path d="M14.8754 20.6254H15.1254C15.4585 20.6116 15.7753 20.4772 16.0167 20.2472C16.2582 20.0173 16.4078 19.7074 16.4379 19.3754L17.5004 4.56287C17.5004 3.89982 17.237 3.26394 16.7681 2.7951C16.2993 2.32626 15.6634 2.06287 15.0004 2.06287C14.3373 2.06287 13.7014 2.32626 13.2326 2.7951C12.7638 3.26394 12.5004 3.89982 12.5004 4.56287L13.5629 19.3754C13.5929 19.7074 13.7426 20.0173 13.984 20.2472C14.2254 20.4772 14.5422 20.6116 14.8754 20.6254Z" fill="white" stroke="white" stroke-width="0.00066"/>
</svg>
