<svg width="22" height="18" viewBox="0 0 22 18" fill="none" xmlns="http://www.w3.org/2000/svg">
<path d="M1.55589 7.7291L1.96682 7.32072L1.55589 6.91239M1.55589 7.7291L1.14494 7.32072L1.55589 6.91239M1.55589 7.7291L7.36744 13.5038L8.18931 12.687L2.37776 6.91239L1.55589 7.7291ZM1.55589 6.91239L7.36744 1.1377L8.18931 1.95435L2.37776 7.7291L1.55589 6.91239ZM21.1449 16.5602C21.1449 16.8791 20.8847 17.1377 20.5638 17.1377C20.2429 17.1377 19.9826 16.8791 19.9826 16.5602M21.1449 16.5602H19.9826M21.1449 16.5602V14.2503M19.9826 16.5602V14.2503M13.5899 6.74325H1.96682V7.89819H13.5899M13.5899 6.74325V7.89819M13.5899 6.74325C17.7624 6.74325 21.1449 10.1042 21.1449 14.2503M13.5899 7.89819C17.1206 7.89819 19.9826 10.7421 19.9826 14.2503M21.1449 14.2503H19.9826" stroke="white" stroke-width="1.61407"/>
</svg>
