<svg width="26" height="23" viewBox="0 0 26 23" fill="none" xmlns="http://www.w3.org/2000/svg">
<path fill-rule="evenodd" clip-rule="evenodd" d="M0.00402832 1.21455C0.00402832 0.546005 0.546004 0.00402832 1.21455 0.00402832C3.18142 0.00402832 4.92763 1.26262 5.54961 3.12857L5.71862 3.63561H20.6192C21.4132 3.63558 22.0885 3.63556 22.6349 3.68438C23.2037 3.73518 23.7723 3.84759 24.292 4.1632C25.0216 4.60624 25.5716 5.29207 25.8459 6.1003C26.0413 6.67606 26.0276 7.25551 25.9539 7.8218C25.883 8.3658 25.7365 9.02498 25.5642 9.80009L25.1936 11.4682C25.0183 12.2567 24.8724 12.9132 24.7115 13.4461C24.5433 14.0036 24.3363 14.5065 24.0004 14.9661C23.4952 15.6573 22.8159 16.2023 22.0316 16.5454C21.5099 16.7737 20.9742 16.8667 20.3934 16.91C19.8383 16.9514 19.166 16.9514 18.3581 16.9514H11.913C11.1051 16.9514 10.4328 16.9514 9.87774 16.91C9.29695 16.8667 8.76121 16.7737 8.23956 16.5454C7.45524 16.2023 6.77591 15.6573 6.27081 14.9661C5.93488 14.5065 5.72792 14.0036 5.55959 13.4461C5.39871 12.9132 5.25288 12.2569 5.07763 11.4682L3.67797 5.16969L3.25279 3.89416C2.96036 3.01685 2.13933 2.42508 1.21455 2.42508C0.546004 2.42508 0.00402832 1.8831 0.00402832 1.21455ZM6.35519 6.05666L7.43143 10.8997C7.61873 11.7426 7.74566 12.3102 7.87732 12.7464C8.00447 13.1675 8.11331 13.3841 8.22556 13.5377C8.47812 13.8833 8.81778 14.1558 9.20994 14.3273C9.38423 14.4036 9.61923 14.4629 10.058 14.4956C10.5123 14.5296 11.0939 14.5303 11.9573 14.5303H18.3138C19.1773 14.5303 19.7588 14.5296 20.2131 14.4956C20.6519 14.4629 20.8869 14.4036 21.0612 14.3273C21.4534 14.1558 21.7931 13.8833 22.0456 13.5377C22.1578 13.3841 22.2666 13.1675 22.3939 12.7464C22.5255 12.3102 22.6524 11.7426 22.8397 10.8997L23.1892 9.327C23.3762 8.48559 23.4979 7.93279 23.5531 7.50897C23.6071 7.09529 23.5756 6.94412 23.5532 6.87822C23.4618 6.60881 23.2784 6.38021 23.0353 6.23252C22.9758 6.1964 22.8351 6.13295 22.4195 6.09582C21.9938 6.0578 21.4278 6.05666 20.5659 6.05666H6.35519Z" fill="white" stroke="black" stroke-width="0.008"/>
<path d="M12.1092 20.583C12.1092 21.9202 11.0253 23.0041 9.68814 23.0041C8.35103 23.0041 7.26709 21.9202 7.26709 20.583C7.26709 19.2459 8.35103 18.162 9.68814 18.162C11.0253 18.162 12.1092 19.2459 12.1092 20.583Z" fill="white" stroke="black" stroke-width="0.008"/>
<path d="M20.5829 23.0041C21.9201 23.0041 23.004 21.9202 23.004 20.583C23.004 19.2459 21.9201 18.162 20.5829 18.162C19.2458 18.162 18.1619 19.2459 18.1619 20.583C18.1619 21.9202 19.2458 23.0041 20.5829 23.0041Z" fill="white" stroke="black" stroke-width="0.008"/>
</svg>
