<svg width="26" height="24" viewBox="0 0 26 24" fill="none" xmlns="http://www.w3.org/2000/svg">
<mask id="mask0_102_606" style="mask-type:luminance" maskUnits="userSpaceOnUse" x="0" y="0" width="26" height="24">
<path d="M26 0H0V24H26V0Z" fill="white"/>
</mask>
<g mask="url(#mask0_102_606)">
<path d="M9.96326 22.9587V19.8741C9.96326 19.0354 10.2832 18.231 10.8528 17.638C11.4223 17.0448 12.1948 16.7116 13.0003 16.7114C13.3992 16.7114 13.7941 16.7932 14.1626 16.9522C14.5311 17.1111 14.866 17.3441 15.148 17.6378C15.43 17.9315 15.6537 18.2801 15.8063 18.6639C15.9589 19.0475 16.0374 19.4588 16.0374 19.8741V22.9587" stroke="white" stroke-width="2.05" stroke-linecap="round" stroke-linejoin="round"/>
<path d="M3.3999 9.13712V20.616C3.3999 21.2373 3.63696 21.8332 4.05891 22.2726C4.48087 22.7119 5.05318 22.9587 5.64995 22.9587H20.3502C20.947 22.9587 21.5193 22.7119 21.9413 22.2726C22.3632 21.8332 22.6003 21.2373 22.6003 20.616V9.13712C22.6003 8.77342 22.5189 8.41472 22.3627 8.08939C22.2065 7.76412 21.9797 7.48117 21.7003 7.26293L14.3501 1.52323C13.9607 1.2191 13.4869 1.05469 13.0001 1.05469C12.5132 1.05469 12.0395 1.2191 11.6501 1.52323L4.29992 7.26293C4.02046 7.48117 3.79366 7.76412 3.63746 8.08939C3.4812 8.41472 3.3999 8.77342 3.3999 9.13712Z" stroke="white" stroke-width="2.05" stroke-linecap="round" stroke-linejoin="round"/>
<path d="M6.60073 5.46692L1.00012 9.9936" stroke="white" stroke-width="2.05" stroke-linecap="round" stroke-linejoin="round"/>
<path d="M20.2 6.09167L25 9.84005" stroke="white" stroke-width="2.05" stroke-linecap="round" stroke-linejoin="round"/>
<path d="M1.00012 9.99249L11.6403 1.52377C12.0316 1.21245 12.5099 1.04289 13.0024 1.04091C13.4948 1.03898 13.9743 1.20469 14.3679 1.51284L25.0006 9.83944" stroke="white" stroke-width="2.05" stroke-linecap="round" stroke-linejoin="round"/>
</g>
</svg>
