<svg width="30" height="30" viewBox="0 0 30 30" fill="none" xmlns="http://www.w3.org/2000/svg">
<path d="M21.85 12.05H24.65C27.45 12.05 28.85 10.65 28.85 7.84998V5.04998C28.85 2.24998 27.45 0.849976 24.65 0.849976H21.85C19.05 0.849976 17.65 2.24998 17.65 5.04998V7.84998C17.65 10.65 19.05 12.05 21.85 12.05Z" stroke="white" stroke-width="1.7" stroke-miterlimit="10" stroke-linecap="round" stroke-linejoin="round"/>
<path d="M5.05001 28.85H7.85001C10.65 28.85 12.05 27.45 12.05 24.65V21.85C12.05 19.05 10.65 17.65 7.85001 17.65H5.05001C2.25001 17.65 0.850006 19.05 0.850006 21.85V24.65C0.850006 27.45 2.25001 28.85 5.05001 28.85Z" stroke="white" stroke-width="1.7" stroke-miterlimit="10" stroke-linecap="round" stroke-linejoin="round"/>
<path d="M6.45001 12.05C9.5428 12.05 12.05 9.54277 12.05 6.44998C12.05 3.35718 9.5428 0.849976 6.45001 0.849976C3.35721 0.849976 0.850006 3.35718 0.850006 6.44998C0.850006 9.54277 3.35721 12.05 6.45001 12.05Z" stroke="white" stroke-width="1.7" stroke-miterlimit="10" stroke-linecap="round" stroke-linejoin="round"/>
<path d="M23.2501 28.85C26.3428 28.85 28.8501 26.3427 28.8501 23.25C28.8501 20.1572 26.3428 17.65 23.2501 17.65C20.1573 17.65 17.6501 20.1572 17.6501 23.25C17.6501 26.3427 20.1573 28.85 23.2501 28.85Z" stroke="white" stroke-width="1.7" stroke-miterlimit="10" stroke-linecap="round" stroke-linejoin="round"/>
</svg>
