<svg width="34" height="34" viewBox="0 0 34 34" fill="none" xmlns="http://www.w3.org/2000/svg">
<path d="M19.1257 24.4377V28.6877C19.1257 30.0967 18.566 31.448 17.5697 32.4442C16.5733 33.4405 15.222 34.0002 13.813 34.0002H5.31278C3.90378 34.0002 2.55248 33.4405 1.55616 32.4442C0.559847 31.448 0.00012207 30.0967 0.00012207 28.6877V5.31274C0.00012207 3.90378 0.559847 2.55253 1.55616 1.55624C2.55248 0.559952 3.90378 0.000244141 5.31278 0.000244141L13.813 0.000244141C15.222 0.000244141 16.5733 0.559952 17.5697 1.55624C18.566 2.55253 19.1257 3.90378 19.1257 5.31274V9.56274C19.1257 9.84454 19.0138 10.1148 18.8145 10.314C18.6152 10.5133 18.345 10.6252 18.0632 10.6252C17.7814 10.6252 17.5111 10.5133 17.3118 10.314C17.1126 10.1148 17.0006 9.84454 17.0006 9.56274V5.31274C17.0006 4.46737 16.6648 3.65661 16.067 3.05884C15.4692 2.46107 14.6584 2.12524 13.813 2.12524H5.31278C4.46738 2.12524 3.6566 2.46107 3.05881 3.05884C2.46102 3.65661 2.12519 4.46737 2.12519 5.31274V28.6877C2.12519 29.5331 2.46102 30.3439 3.05881 30.9416C3.6566 31.5394 4.46738 31.8752 5.31278 31.8752H13.813C14.6584 31.8752 15.4692 31.5394 16.067 30.9416C16.6648 30.3439 17.0006 29.5331 17.0006 28.6877V24.4377C17.0006 24.156 17.1126 23.8857 17.3118 23.6864C17.5111 23.4872 17.7814 23.3752 18.0632 23.3752C18.345 23.3752 18.6152 23.4872 18.8145 23.6864C19.0138 23.8857 19.1257 24.156 19.1257 24.4377ZM33.9204 16.3436C34.0267 16.0835 34.0267 15.792 33.9204 15.5319C33.866 15.4027 33.7873 15.2852 33.6888 15.1855L25.1885 6.68549C25.0898 6.58655 24.9726 6.50804 24.8435 6.45448C24.7144 6.40092 24.576 6.37334 24.4362 6.37334C24.2965 6.37334 24.1581 6.40092 24.029 6.45448C23.8999 6.50804 23.7827 6.58655 23.684 6.68549C23.585 6.78419 23.5065 6.90144 23.4529 7.03052C23.3994 7.15961 23.3718 7.29799 23.3718 7.43774C23.3718 7.5775 23.3994 7.71588 23.4529 7.84497C23.5065 7.97405 23.585 8.0913 23.684 8.18999L30.3737 14.8752H9.56291C9.28111 14.8752 9.01085 14.9872 8.81159 15.1864C8.61232 15.3857 8.50038 15.656 8.50038 15.9377C8.50038 16.2195 8.61232 16.4898 8.81159 16.689C9.01085 16.8883 9.28111 17.0002 9.56291 17.0002H30.3737L23.6861 23.6855C23.5871 23.7842 23.5086 23.9014 23.4551 24.0305C23.4015 24.1596 23.3739 24.298 23.3739 24.4377C23.3739 24.5775 23.4015 24.7159 23.4551 24.845C23.5086 24.974 23.5871 25.0913 23.6861 25.19C23.7849 25.2886 23.9023 25.3668 24.0314 25.42C24.1604 25.4732 24.2987 25.5005 24.4384 25.5002C24.578 25.5005 24.7163 25.4732 24.8454 25.42C24.9745 25.3668 25.0918 25.2886 25.1906 25.19L33.6909 16.69C33.7887 16.5902 33.8666 16.4726 33.9204 16.3436Z" fill="white" stroke="black" stroke-width="0.000355"/>
</svg>
